<svg xmlns="http://www.w3.org/2000/svg" width="50" height="61.71" viewBox="0 0 50 61.71"><defs><style>.cls-1{fill:#bde4fd;}.cls-1,.cls-3,.cls-4{stroke:#1b6dc6;stroke-linecap:round;stroke-linejoin:round;stroke-width:2px;}.cls-2{fill:#fff;}.cls-3{fill:#e9f6fe;}.cls-4{fill:none;}</style></defs><title>arch_02</title><g id="Layer_2" data-name="Layer 2"><g id="Layer_1-2" data-name="Layer 1"><path class="cls-1" d="M37,7.93,25,1,1,14.86l12,6.92c6.63,3.83,12,14.1,12,22.93v16L49,46.86v-16C49,22,43.63,11.75,37,7.93Z"/><polygon class="cls-2" points="37 7.93 25 1 1 14.86 13 21.79 37 7.93"/><path class="cls-3" d="M13,21.78,1,14.86v32L25,60.71v-16C25,35.88,19.63,25.61,13,21.78Z"/><path class="cls-4" d="M37,7.93,25,1,1,14.86l12,6.92c6.63,3.83,12,14.1,12,22.93v16L49,46.86v-16C49,22,43.63,11.75,37,7.93Z"/></g></g></svg>