<svg xmlns="http://www.w3.org/2000/svg" width="50" height="61.71" viewBox="0 0 50 61.71"><defs><style>.cls-1{fill:#f2f4f6;}.cls-1,.cls-2,.cls-3{stroke:#627386;}.cls-1,.cls-2,.cls-3,.cls-4,.cls-5,.cls-6{stroke-linecap:round;stroke-linejoin:round;stroke-width:2px;}.cls-2{fill:#fff;}.cls-3{fill:#d5dae0;}.cls-4{fill:#e9f6fe;}.cls-4,.cls-5,.cls-6{stroke:#1b6dc6;}.cls-5{fill:#bde4fd;}.cls-6{fill:none;}</style></defs><title>arch_01</title><g id="Layer_2" data-name="Layer 2"><g id="Layer_1-2" data-name="Layer 1"><polygon class="cls-1" points="13 21.79 1 14.86 1 46.86 25 60.71 25 44.71 13 37.78 13 21.79"/><polygon class="cls-2" points="37 7.93 25 1 1 14.86 13 21.79 37 7.93"/><polygon class="cls-3" points="25 60.71 49 46.86 49 30.86 25 44.71 25 60.71"/><polygon class="cls-3" points="37 7.93 37 23.93 13 37.78 13 21.79 37 7.93"/><polygon class="cls-2" points="37 23.93 49 30.86 25 44.71 13 37.78 37 23.93"/><path class="cls-4" d="M13,21.78c6.63,3.83,12,14.1,12,22.93L13,37.78Z"/><path class="cls-5" d="M13,21.78c6.63,3.83,12,14.1,12,22.93L49,30.86C49,22,43.63,11.75,37,7.93Z"/><path class="cls-6" d="M13,21.78c6.63,3.83,12,14.1,12,22.93L49,30.86C49,22,43.63,11.75,37,7.93Z"/></g></g></svg>