<svg xmlns="http://www.w3.org/2000/svg" width="46.1" height="41.86" viewBox="0 0 46.1 41.86"><defs><style>.cls-1{fill:#d5dae0;}.cls-1,.cls-2,.cls-3{stroke:#627386;stroke-linecap:round;stroke-linejoin:round;stroke-width:2px;}.cls-2{fill:#fff;}.cls-3{fill:#f2f4f6;}.cls-4{fill:none;}</style></defs><title>block_02</title><g id="Layer_2" data-name="Layer 2"><g id="Layer_1-2" data-name="Layer 1"><polygon class="cls-1" points="45.1 28.13 23.05 40.86 23.05 26.46 45.1 13.73 45.1 28.13"/><polygon class="cls-2" points="45.1 13.73 23.05 1 23.05 1 1 13.73 1 13.73 1 13.73 23.05 26.46 23.05 26.46 45.1 13.73"/><polygon class="cls-3" points="1 28.13 23.05 40.86 23.05 26.46 1 13.73 1 28.13"/><polygon class="cls-4" points="45.1 28.13 23.05 15.4 23.05 15.4 1 28.13 1 28.13 1 28.13 23.05 40.86 23.05 40.86 45.1 28.13"/><polygon class="cls-2" points="13.16 14.76 18.28 8.96 29.4 9.98 31.16 16.41 21.13 19.36 13.16 14.76"/></g></g></svg>