<svg xmlns="http://www.w3.org/2000/svg" width="46.1" height="41.86" viewBox="0 0 46.1 41.86"><defs><style>.cls-1{fill:#d5dae0;}.cls-1,.cls-2,.cls-3{stroke:#627386;stroke-linecap:round;stroke-linejoin:round;stroke-width:2px;}.cls-2{fill:#fff;}.cls-3{fill:#f2f4f6;}.cls-4{fill:none;}</style></defs><title>block_07</title><g id="Layer_2" data-name="Layer 2"><g id="Layer_1-2" data-name="Layer 1"><polygon class="cls-1" points="45.1 28.13 23.05 40.86 23.05 26.46 45.1 13.73 45.1 28.13"/><polygon class="cls-2" points="45.1 13.73 23.05 1 23.05 1 1 13.73 1 13.73 1 13.73 23.05 26.46 23.05 26.46 45.1 13.73"/><polygon class="cls-3" points="1 28.13 23.05 40.86 23.05 26.46 1 13.73 1 28.13"/><polygon class="cls-4" points="45.1 28.13 23.05 15.4 23.05 15.4 1 28.13 1 28.13 1 28.13 23.05 40.86 23.05 40.86 45.1 28.13"/><polygon class="cls-2" points="14.55 15.05 16.83 10.14 25.33 8.82 31.55 12.42 29.27 17.32 20.77 18.64 14.55 15.05"/></g></g></svg>