<svg xmlns="http://www.w3.org/2000/svg" width="46.1" height="41.86" viewBox="0 0 46.1 41.86"><defs><style>.cls-1{fill:#f2f4f6;}.cls-1,.cls-2,.cls-3{stroke:#627386;stroke-linecap:round;stroke-linejoin:round;stroke-width:2px;}.cls-2{fill:#fff;}.cls-3{fill:#d5dae0;}.cls-4{fill:none;}</style></defs><title>block_03</title><g id="Layer_2" data-name="Layer 2"><g id="Layer_1-2" data-name="Layer 1"><polygon class="cls-1" points="1 28.13 23.05 40.86 23.05 26.46 1 13.73 1 28.13"/><polygon class="cls-2" points="1 13.73 23.05 1 23.05 1 45.1 13.73 45.1 13.73 45.1 13.73 23.05 26.46 23.05 26.46 1 13.73"/><line class="cls-2" x1="23.05" y1="9.05" x2="23.05" y2="18.41"/><line class="cls-2" x1="31.15" y1="13.73" x2="14.95" y2="13.73"/><polygon class="cls-3" points="45.1 28.13 23.05 40.86 23.05 26.46 45.1 13.73 45.1 28.13"/><polygon class="cls-4" points="1 28.13 23.05 15.4 23.05 15.4 45.1 28.13 45.1 28.13 45.1 28.13 23.05 40.86 23.05 40.86 1 28.13"/></g></g></svg>