<?xml version="1.0" encoding="UTF-8"?>
<svg width="14px" height="14px" viewBox="0 0 14 14" version="1.1" xmlns="http://www.w3.org/2000/svg" xmlns:xlink="http://www.w3.org/1999/xlink">
    <!-- Generator: Sketch 48.2 (47327) - http://www.bohemiancoding.com/sketch -->
    <title>bell</title>
    <desc>Created with Sketch.</desc>
    <defs></defs>
    <g id="Page-1" stroke="none" stroke-width="1" fill="none" fill-rule="evenodd">
        <g id="bell" fill="#F65656" fill-rule="nonzero">
            <path d="M9.26333333,12.0003333 C8.92966667,13.1635 8.04533333,14 7,14 C5.95583333,14 5.07033333,13.1635 4.74016667,12.0003333 L9.26333333,12.0003333 Z M13.8483333,10.262 C9.18983333,7.19366667 12.6898333,0 7,0 C1.31483333,0 4.81483333,7.19366667 0.151666667,10.2608333 C0.0408333333,10.3343333 0,10.4591667 0,10.5758333 C0,10.6306667 0.007,10.6773333 0.0268333333,10.7298333 C0.0968333333,10.8966667 0.254333333,11.0005 0.4375,11.0005 L13.5625,11.0005 C13.7491667,11.0005 13.9043333,10.892 13.9731667,10.7275 C13.993,10.675 14,10.6283333 14,10.5758333 C14,10.4591667 13.9591667,10.3308333 13.8483333,10.2585 L13.8483333,10.262 Z" id="Shape"></path>
        </g>
    </g>
</svg>